<svg width="40" height="40" viewBox="0 0 40 40" fill="none" xmlns="http://www.w3.org/2000/svg">
<rect width="40" height="40" fill="#AAAAAA" fill-opacity="0.7"/>
<circle cx="20" cy="20" r="20" fill="#272A48"/>
<path d="M20.0499 7.01376V7.02669C20.0628 7.09132 20.0628 7.16889 20.0628 7.24645V16.5672C20.0499 16.6189 20.0111 16.6318 19.9723 16.6577C19.7008 16.787 19.4423 16.9033 19.1708 17.0196C18.7959 17.1877 18.4081 17.3687 18.0332 17.5367L16.6758 18.1573C16.3009 18.3253 15.926 18.4934 15.564 18.6614C15.1245 18.8683 14.672 19.0622 14.2325 19.269C13.8576 19.4371 13.4827 19.6181 13.0949 19.7861C12.7846 19.9283 12.4744 20.0576 12.177 20.1998C12.1512 20.2127 12.1253 20.2257 12.0995 20.2257C12.0865 20.2257 12.0865 20.2257 12.0736 20.2127L12.4227 19.631C13.0949 18.5192 13.7542 17.4204 14.4264 16.3086C15.1374 15.1193 15.8614 13.93 16.5724 12.7406C17.2317 11.6418 17.9039 10.543 18.5632 9.44413C19.0415 8.64262 19.5328 7.84112 20.0111 7.03961C20.024 7.01376 20.037 7.00083 20.037 6.97498H20.0499C20.037 6.9879 20.0499 7.00083 20.0499 7.01376Z" fill="#8A92B2"/>
<path d="M27.9875 20.21L28.0004 20.2229L26.1001 21.3476L20.1276 24.8768C20.1017 24.8898 20.0759 24.9027 20.063 24.9156C20.0242 24.9156 20.0242 24.8768 20.0242 24.8639V24.7476V16.7584C20.0242 16.7196 20.0242 16.6679 20.0371 16.6291C20.05 16.5774 20.0888 16.5903 20.1276 16.6032C20.2956 16.6808 20.4766 16.7584 20.6447 16.8359C21.1489 17.0686 21.653 17.3013 22.1572 17.5211C22.5967 17.715 23.0234 17.9218 23.4629 18.1158C23.9024 18.3097 24.342 18.5165 24.7815 18.7104C25.1564 18.8785 25.5442 19.0595 25.9191 19.2275C26.294 19.3956 26.6818 19.5766 27.0567 19.7446C27.3541 19.8739 27.6514 20.0161 27.9487 20.1454C27.9487 20.1842 27.9617 20.1971 27.9875 20.21Z" fill="#454A75"/>
<path d="M20.0491 32.9454C20.0491 32.9583 20.0362 32.9712 20.0362 32.9841H20.0233C20.0233 32.9583 19.9974 32.9454 19.9845 32.9195C19.183 31.7948 18.3815 30.6572 17.58 29.5325C16.7656 28.3819 15.9382 27.2185 15.1238 26.0679C14.3352 24.9562 13.5337 23.8315 12.7451 22.7197C12.5383 22.4224 12.3314 22.138 12.1246 21.8406C12.1117 21.8148 12.0987 21.8018 12.0729 21.7631C12.1117 21.7631 12.1375 21.7889 12.1504 21.8018C13.2751 22.4611 14.3869 23.1204 15.5116 23.7798C16.8043 24.5425 18.0842 25.3052 19.3769 26.0679L20.0362 26.4557C20.0621 26.4816 20.0621 26.5075 20.0621 26.5333V32.7644C20.0621 32.829 20.0621 32.8936 20.0491 32.9454Z" fill="#8A92B2"/>
<path d="M12.0602 20.2372V20.2243C12.4739 20.0433 12.8746 19.8494 13.2883 19.6684C13.8183 19.4228 14.3483 19.1901 14.8784 18.9445C15.2791 18.7635 15.6928 18.5696 16.0936 18.3886C16.6882 18.1171 17.27 17.8586 17.8646 17.5871C18.2654 17.4061 18.6661 17.2251 19.0798 17.0312C19.3642 16.9019 19.6616 16.7727 19.946 16.6434C19.9718 16.6305 20.0106 16.6175 20.0235 16.5917C20.0364 16.5917 20.0364 16.6046 20.0235 16.6175V24.8265C20.0235 24.8653 20.0106 24.9041 20.0364 24.9299C20.0106 24.9687 19.9847 24.9299 19.9718 24.917C19.8555 24.8523 19.7391 24.7877 19.6228 24.7101C17.1278 23.2364 14.6198 21.7497 12.1248 20.276C12.1119 20.2631 12.086 20.2502 12.0602 20.2372Z" fill="#62688F"/>
<path d="M27.9614 21.7631H27.9744C27.9744 21.7889 27.9485 21.8148 27.9356 21.8406C25.5569 25.1889 23.1782 28.55 20.7996 31.8982C20.554 32.2473 20.2954 32.5963 20.0498 32.9454C20.0369 32.9324 20.0369 32.9195 20.0369 32.9066V32.829V26.5592V26.4428C20.5798 26.1196 21.1098 25.8094 21.6528 25.4862C23.7471 24.2451 25.8413 23.017 27.9226 21.776C27.9356 21.7889 27.9485 21.776 27.9614 21.7631Z" fill="#62688F"/>
<path d="M20.0365 16.618V16.5921V16.5145V7.12918C20.0365 7.09039 20.0235 7.06454 20.0494 7.02576C22.6737 11.3823 25.298 15.726 27.9093 20.0825C27.9352 20.1213 27.974 20.173 27.9869 20.2247C27.8059 20.1601 27.6379 20.0696 27.4698 19.992C27.263 19.9016 27.0432 19.7981 26.8363 19.7076C26.7071 19.643 26.5649 19.5913 26.4356 19.5267C26.2158 19.4232 25.9961 19.3327 25.7763 19.2293C25.647 19.1776 25.5177 19.113 25.3885 19.0483L24.5352 18.6605C24.393 18.5959 24.2508 18.5312 24.0957 18.4666L23.4752 18.1951C23.3459 18.1434 23.2166 18.0788 23.0874 18.0141L22.2342 17.6263C22.0919 17.5617 21.9497 17.497 21.7946 17.4324L21.1741 17.1609C21.0319 17.0963 20.9026 17.0316 20.7604 16.967C20.5148 16.8507 20.2692 16.7343 20.0106 16.6309C20.0494 16.618 20.0365 16.618 20.0365 16.618Z" fill="#62688F"/>
</svg>
