<svg width="20" height="20" viewBox="0 0 20 20" fill="none" xmlns="http://www.w3.org/2000/svg">
<g clip-path="url(#clip0)">
<path d="M0.526367 10.0001C0.526367 4.76788 4.76788 0.526367 10.0001 0.526367C15.2322 0.526367 19.4737 4.76788 19.4737 10.0001C19.4737 15.2322 15.2322 19.4737 10.0001 19.4737C4.76788 19.4737 0.526367 15.2322 0.526367 10.0001Z" fill="#AAAAAA" fill-opacity="0.7"/>
<circle cx="10.0001" cy="10.0001" r="9.47368" fill="#272A48"/>
<path d="M10.0237 3.84869V3.85482C10.0298 3.88543 10.0298 3.92218 10.0298 3.95892V8.374C10.0237 8.3985 10.0053 8.40462 9.98698 8.41687C9.85838 8.4781 9.73591 8.53321 9.60732 8.58833C9.42973 8.66793 9.24603 8.75366 9.06844 8.83327L8.42547 9.1272C8.24789 9.20681 8.0703 9.28641 7.89884 9.36602C7.69064 9.46399 7.47632 9.55585 7.26812 9.65383C7.09053 9.73343 6.91295 9.81916 6.72924 9.89877C6.58228 9.96613 6.43531 10.0274 6.29447 10.0947C6.28222 10.1008 6.26998 10.107 6.25773 10.107C6.25161 10.107 6.25161 10.107 6.24548 10.1008L6.41082 9.82528C6.72924 9.29866 7.04155 8.77816 7.35997 8.25153C7.69677 7.68816 8.03969 7.1248 8.37648 6.56143C8.68878 6.04093 9.00721 5.52042 9.31951 4.99992C9.54608 4.62026 9.77877 4.2406 10.0053 3.86094C10.0115 3.84869 10.0176 3.84257 10.0176 3.83032H10.0237C10.0176 3.83645 10.0237 3.84257 10.0237 3.84869Z" fill="#8A92B2"/>
<path d="M13.7836 10.0995L13.7897 10.1056L12.8895 10.6384L10.0605 12.3101C10.0482 12.3162 10.036 12.3224 10.0298 12.3285C10.0115 12.3285 10.0115 12.3101 10.0115 12.304V12.2489V8.46452C10.0115 8.44615 10.0115 8.42165 10.0176 8.40328C10.0237 8.37879 10.0421 8.38491 10.0605 8.39104C10.1401 8.42778 10.2258 8.46452 10.3054 8.50126C10.5442 8.61148 10.783 8.72171 11.0219 8.82581C11.2301 8.91766 11.4321 9.01564 11.6403 9.10749C11.8485 9.19935 12.0567 9.29732 12.2649 9.38918C12.4425 9.46878 12.6262 9.55451 12.8038 9.63412C12.9814 9.71372 13.1651 9.79945 13.3427 9.87906C13.4835 9.9403 13.6244 10.0077 13.7652 10.0689C13.7652 10.0873 13.7713 10.0934 13.7836 10.0995Z" fill="#454A75"/>
<path d="M10.0234 16.1321C10.0234 16.1382 10.0172 16.1443 10.0172 16.1505H10.0111C10.0111 16.1382 9.99886 16.1321 9.99273 16.1198C9.61307 15.5871 9.23341 15.0482 8.85375 14.5155C8.46797 13.9705 8.07606 13.4193 7.69028 12.8743C7.31674 12.3477 6.93708 11.815 6.56354 11.2883C6.46557 11.1475 6.36759 11.0128 6.26961 10.8719C6.26349 10.8597 6.25736 10.8536 6.24512 10.8352C6.26349 10.8352 6.27573 10.8475 6.28186 10.8536C6.81461 11.1659 7.34123 11.4782 7.87398 11.7905C8.48634 12.1518 9.09257 12.5131 9.70493 12.8743L10.0172 13.0581C10.0295 13.0703 10.0295 13.0825 10.0295 13.0948V16.0464C10.0295 16.077 10.0295 16.1076 10.0234 16.1321Z" fill="#8A92B2"/>
<path d="M6.23901 10.1124V10.1063C6.43497 10.0205 6.6248 9.9287 6.82075 9.84297C7.07182 9.72662 7.32288 9.61639 7.57395 9.50005C7.76378 9.41432 7.95973 9.32246 8.14956 9.23673C8.43125 9.10814 8.70681 8.98567 8.98849 8.85707C9.17832 8.77134 9.36815 8.68561 9.5641 8.59376C9.69882 8.53252 9.83966 8.47129 9.97438 8.41005C9.98663 8.40393 10.005 8.39781 10.0111 8.38556C10.0172 8.38556 10.0172 8.39168 10.0111 8.39781V12.2863C10.0111 12.3046 10.005 12.323 10.0172 12.3353C10.005 12.3536 9.99275 12.3353 9.98663 12.3291C9.93152 12.2985 9.87641 12.2679 9.82129 12.2312C8.63945 11.5331 7.45148 10.8289 6.26963 10.1308C6.26351 10.1246 6.25126 10.1185 6.23901 10.1124Z" fill="#62688F"/>
<path d="M13.7712 10.8352H13.7773C13.7773 10.8475 13.7651 10.8597 13.7589 10.8719C12.6322 12.4579 11.5055 14.0501 10.3787 15.6361C10.2624 15.8014 10.1399 15.9667 10.0236 16.1321C10.0175 16.126 10.0175 16.1198 10.0175 16.1137V16.077V13.107V13.0519C10.2746 12.8988 10.5257 12.7519 10.7829 12.5988C11.7749 12.0109 12.7669 11.4292 13.7528 10.8413C13.7589 10.8475 13.7651 10.8413 13.7712 10.8352Z" fill="#62688F"/>
<path d="M10.0174 8.39805V8.3858V8.34906V3.90336C10.0174 3.88499 10.0113 3.87274 10.0235 3.85437C11.2666 5.91801 12.5097 7.97552 13.7466 10.0392C13.7589 10.0575 13.7772 10.082 13.7834 10.1065C13.6976 10.0759 13.618 10.033 13.5384 9.9963C13.4404 9.95343 13.3363 9.90444 13.2384 9.86158C13.1771 9.83096 13.1098 9.80647 13.0485 9.77585C12.9444 9.72686 12.8403 9.684 12.7362 9.63501C12.675 9.61051 12.6138 9.5799 12.5525 9.54928L12.1484 9.36557C12.081 9.33495 12.0137 9.30434 11.9402 9.27372L11.6462 9.14512C11.585 9.12063 11.5238 9.09001 11.4625 9.05939L11.0584 8.87569C10.991 8.84507 10.9237 8.81445 10.8502 8.78383L10.5562 8.65524C10.4889 8.62462 10.4277 8.594 10.3603 8.56339C10.2439 8.50827 10.1276 8.45316 10.0051 8.40417C10.0235 8.39805 10.0174 8.39805 10.0174 8.39805Z" fill="#62688F"/>
</g>
<defs>
<clipPath id="clip0">
<path d="M0.526367 10.0001C0.526367 4.76788 4.76788 0.526367 10.0001 0.526367C15.2322 0.526367 19.4737 4.76788 19.4737 10.0001C19.4737 15.2322 15.2322 19.4737 10.0001 19.4737C4.76788 19.4737 0.526367 15.2322 0.526367 10.0001Z" fill="white"/>
</clipPath>
</defs>
</svg>
