<svg width="21" height="20" viewBox="0 0 21 20" fill="none" xmlns="http://www.w3.org/2000/svg">
<path d="M12.4431 16.2494V12.4994C12.4431 12.3336 12.3779 12.1746 12.262 12.0574C12.146 11.9402 11.9887 11.8744 11.8247 11.8744H9.35107C9.18706 11.8744 9.02976 11.9402 8.91379 12.0574C8.79782 12.1746 8.73267 12.3336 8.73267 12.4994V16.2494C8.73267 16.4152 8.66752 16.5741 8.55157 16.6913C8.43561 16.8086 8.27834 16.8744 8.11434 16.8744L4.40437 16.8749C4.32315 16.8749 4.24273 16.8588 4.16769 16.8274C4.09266 16.796 4.02447 16.7499 3.96704 16.6919C3.90961 16.6339 3.86405 16.565 3.83297 16.4891C3.80189 16.4133 3.78589 16.332 3.78589 16.2499V9.02646C3.78589 8.93938 3.80389 8.85327 3.83874 8.77364C3.87359 8.69401 3.92452 8.62261 3.98827 8.56403L10.1719 2.88163C10.2857 2.77703 10.434 2.71906 10.5879 2.71906C10.7417 2.71905 10.8901 2.777 11.0039 2.8816L17.1884 8.56403C17.2521 8.62261 17.3031 8.69401 17.3379 8.77364C17.3728 8.85328 17.3908 8.9394 17.3908 9.02648V16.2499C17.3908 16.332 17.3748 16.4133 17.3437 16.4891C17.3126 16.565 17.267 16.6339 17.2096 16.6919C17.1522 16.7499 17.084 16.796 17.009 16.8274C16.9339 16.8588 16.8535 16.8749 16.7723 16.8749L13.0614 16.8744C12.8974 16.8744 12.7401 16.8086 12.6242 16.6914C12.5082 16.5741 12.4431 16.4152 12.4431 16.2494Z" fill="white" stroke="white" stroke-width="2" stroke-linecap="round" stroke-linejoin="round"/>
</svg>
