<svg width="20" height="19" viewBox="0 0 20 19" fill="none" xmlns="http://www.w3.org/2000/svg">
<path d="M19.2277 8.26032C19.9742 8.26032 20.2858 7.30131 19.6795 6.85924L10.4541 0.148562C10.3223 0.0520374 10.1633 0 9.99994 0C9.83662 0 9.67755 0.0520374 9.5458 0.148562L0.320425 6.85924C-0.285904 7.29889 0.0257154 8.26032 0.774567 8.26032H2.26986V17.2949H0.530586C0.424298 17.2949 0.337334 17.3818 0.337334 17.4881V18.7442C0.337334 18.8505 0.424298 18.9375 0.530586 18.9375H19.4693C19.5756 18.9375 19.6625 18.8505 19.6625 18.7442V17.4881C19.6625 17.3818 19.5756 17.2949 19.4693 17.2949H17.73V8.26032H19.2277ZM9.99994 1.8516L16.5488 6.61526H3.45111L9.99994 1.8516ZM4.00912 8.26032H6.83544V17.2949H4.00912V8.26032ZM8.57471 8.26032H11.401V17.2949H8.57471V8.26032ZM15.9908 17.2949H13.1403V8.26032H15.9908V17.2949Z" fill="#87D3DD"/>
</svg>
