<svg width="17" height="20" viewBox="0 0 17 20" fill="none" xmlns="http://www.w3.org/2000/svg">
<path d="M8.20513 20C9.33333 20 10.2564 19.0769 10.2564 17.9487H6.15385C6.15385 19.0769 7.07692 20 8.20513 20ZM14.359 13.8462V8.71795C14.359 5.56923 12.6872 2.93333 9.74359 2.2359V0H6.66667V2.2359C3.73333 2.93333 2.05128 5.55897 2.05128 8.71795V13.8462L0 15.8974V16.9231H16.4103V15.8974L14.359 13.8462ZM12.3077 14.8718H4.10256V8.71795C4.10256 6.17436 5.65128 4.10256 8.20513 4.10256C10.759 4.10256 12.3077 6.17436 12.3077 8.71795V14.8718Z" fill="#87D3DD"/>
</svg>
