<svg width="22" height="20" viewBox="0 0 22 20" fill="none" xmlns="http://www.w3.org/2000/svg">
<path d="M20.3065 8.72377C21.0948 8.72377 21.4239 7.71095 20.7836 7.24408L11.0406 0.156897C10.9015 0.054957 10.7335 0 10.561 0C10.3885 0 10.2205 0.054957 10.0814 0.156897L0.338402 7.24408C-0.301944 7.7084 0.0271582 8.72377 0.818025 8.72377H2.39721V18.2652H0.560355C0.448103 18.2652 0.356261 18.357 0.356261 18.4693V19.7959C0.356261 19.9082 0.448103 20 0.560355 20H20.5616C20.6739 20 20.7657 19.9082 20.7657 19.7959V18.4693C20.7657 18.357 20.6739 18.2652 20.5616 18.2652H18.7248V8.72377H20.3065ZM10.561 1.95548L17.4772 6.98641H3.64474L10.561 1.95548ZM4.23406 8.72377H7.21894V18.2652H4.23406V8.72377ZM9.05579 8.72377H12.0407V18.2652H9.05579V8.72377ZM16.8879 18.2652H13.8775V8.72377H16.8879V18.2652Z" fill="#11133F"/>
</svg>
