<svg width="180" height="180" viewBox="0 0 180 180" fill="none" xmlns="http://www.w3.org/2000/svg">
<circle cx="90" cy="90" r="90" fill="#87D3DD"/>
<path d="M60.8335 116.068C60.8335 110.468 63.2918 105.097 67.6677 101.137C72.0435 97.1772 77.9784 94.9525 84.1668 94.9525C90.3552 94.9525 96.2901 97.1772 100.666 101.137C105.042 105.097 107.5 110.468 107.5 116.068H101.667C101.667 111.868 99.8231 107.84 96.5412 104.87C93.2593 101.9 88.8081 100.231 84.1668 100.231C79.5255 100.231 75.0743 101.9 71.7925 104.87C68.5106 107.84 66.6668 111.868 66.6668 116.068H60.8335ZM84.1668 92.3131C74.4981 92.3131 66.6668 85.2261 66.6668 76.4763C66.6668 67.7264 74.4981 60.6395 84.1668 60.6395C93.8356 60.6395 101.667 67.7264 101.667 76.4763C101.667 85.2261 93.8356 92.3131 84.1668 92.3131ZM84.1668 87.0341C90.6127 87.0341 95.8335 82.3095 95.8335 76.4763C95.8335 70.643 90.6127 65.9184 84.1668 65.9184C77.721 65.9184 72.5002 70.643 72.5002 76.4763C72.5002 82.3095 77.721 87.0341 84.1668 87.0341ZM108.328 96.8081C112.427 98.4786 115.906 101.185 118.346 104.602C120.786 108.018 122.084 112 122.083 116.068H116.25C116.251 113.017 115.278 110.03 113.447 107.468C111.617 104.905 109.008 102.875 105.934 101.622L108.326 96.8081H108.328ZM106.322 67.0085C109.26 68.1047 111.773 69.9661 113.541 72.3567C115.308 74.7472 116.251 77.5591 116.25 80.4355C116.251 84.0577 114.756 87.5494 112.058 90.2248C109.359 92.9001 105.653 94.5658 101.667 94.8944V89.5812C103.828 89.3011 105.833 88.4014 107.387 87.0142C108.942 85.627 109.964 83.8254 110.304 81.8738C110.643 79.9222 110.283 77.9235 109.275 76.171C108.267 74.4186 106.664 73.0047 104.703 72.137L106.322 67.0085Z" fill="#11133F"/>
</svg>
