<svg width="40" height="40" viewBox="0 0 40 40" fill="none" xmlns="http://www.w3.org/2000/svg">
<path d="M39.964 19.9924C39.964 30.9835 31.0545 39.8929 20.0635 39.8929C9.07281 39.8929 0.162964 30.9835 0.162964 19.9924C0.162964 9.00157 9.07281 0.0919189 20.0635 0.0919189C31.0545 0.0919189 39.964 9.00157 39.964 19.9924Z" fill="#1BA27A"/>
<path d="M29.4036 10.126H10.5598V14.6752H17.7071V21.3618H22.2563V14.6752H29.4036V10.126Z" fill="white"/>
<path d="M20.0245 22.0748C14.1121 22.0748 9.31864 21.139 9.31864 19.9846C9.31864 18.8304 14.1119 17.8945 20.0245 17.8945C25.937 17.8945 30.7302 18.8304 30.7302 19.9846C30.7302 21.139 25.937 22.0748 20.0245 22.0748ZM32.0454 20.3331C32.0454 18.8445 26.6635 17.6379 20.0245 17.6379C13.3857 17.6379 8.00342 18.8445 8.00342 20.3331C8.00342 21.6439 12.1768 22.736 17.7069 22.978V32.5768H22.2558V22.9818C27.8285 22.7474 32.0454 21.6507 32.0454 20.3331Z" fill="white"/>
</svg>
