<svg width="24" height="24" viewBox="0 0 24 24" fill="none" xmlns="http://www.w3.org/2000/svg">
<circle cx="12" cy="12" r="12" fill="white"/>
<g clip-path="url(#clip0)">
<path d="M21.4567 11.9965C21.4567 17.2028 17.2365 21.4231 12.0302 21.4231C6.82409 21.4231 2.60364 17.2028 2.60364 11.9965C2.60364 6.79031 6.82409 2.56995 12.0302 2.56995C17.2365 2.56995 21.4567 6.79031 21.4567 11.9965Z" fill="#1BA27A"/>
<path d="M16.4544 7.32294H7.52844V9.47785H10.914V12.6452H13.0689V9.47785H16.4544V7.32294Z" fill="white"/>
<path d="M12.0117 12.9829C9.21108 12.9829 6.94051 12.5396 6.94051 11.9928C6.94051 11.4461 9.21098 11.0027 12.0117 11.0027C14.8123 11.0027 17.0828 11.4461 17.0828 11.9928C17.0828 12.5396 14.8123 12.9829 12.0117 12.9829ZM17.7058 12.1579C17.7058 11.4528 15.1565 10.8812 12.0117 10.8812C8.86701 10.8812 6.3175 11.4528 6.3175 12.1579C6.3175 12.7788 8.29435 13.2961 10.9139 13.4107V17.9576H13.0686V13.4125C15.7083 13.3015 17.7058 12.782 17.7058 12.1579Z" fill="white"/>
</g>
<defs>
<clipPath id="clip0">
<rect width="18.9474" height="18.9474" fill="white" transform="translate(2.52637 2.52637)"/>
</clipPath>
</defs>
</svg>
